<svg id="Capa_1" data-name="Capa 1" xmlns="http://www.w3.org/2000/svg" viewBox="0 0 500 500"><title>sqliteconsole</title><rect width="500" height="500" fill="#2b313f"/><path d="M320.2,230.31h1.51a6.68,6.68,0,0,0,5.54,0H354a2,2,0,0,0,1.63.48,219.34,219.34,0,0,1,22.21,2,203.17,203.17,0,0,1,39.55,8.65c10.45,3.49,20.58,7.7,28.92,15.19,4.88,4.38,8.49,9.5,7.87,16.56-1.42,6.45-5.16,11.32-10.3,15.26-10.59,8.13-22.89,12.51-35.56,15.9-21.26,5.68-43,8.19-64.93,8.63h-12c-5.23-.45-10.47-0.16-15.72-0.64-5-.45-10.08-0.83-15.1-1.37-4-.43-8-1.17-12-1.74a194.38,194.38,0,0,1-26-5.75,117.1,117.1,0,0,1-17.84-6.71c-9.92-4.66-19.18-9.9-23.68-20.68a13.94,13.94,0,0,1-.16-7.4c1.45-6.54,5.79-11,11-14.79,11.29-8.26,24.31-12.58,37.65-16a245.42,245.42,0,0,1,42.23-6.72C314.44,231,317.42,231.42,320.2,230.31Z" transform="translate(-86.83 -108.78)" fill="#7fabda"/><path d="M327.25,230.31a6.68,6.68,0,0,1-5.54,0h5.54Z" transform="translate(-86.83 -108.78)" fill="#88a6cc"/><path d="M454.14,273.18q0,29.72,0,59.44a27.65,27.65,0,0,1-9.19,13.52,57.62,57.62,0,0,1-10.28,6.77c-11.47,6-23.74,9.64-36.32,12.38a279.1,279.1,0,0,1-50.31,6q-13.19.43-26.41-.25a295,295,0,0,1-35.15-3.71c-16.14-2.77-32-6.71-46.54-14.46-8.63-4.59-16.43-10.13-19.38-20.24q0-27.59-.08-55.18a1.33,1.33,0,0,1,.45-1.34c4.5,10.78,13.77,16,23.68,20.68a117.1,117.1,0,0,0,17.84,6.71,194.38,194.38,0,0,0,26,5.75c4,0.56,8,1.31,12,1.74,5,0.53,10.08.91,15.1,1.37,5.25,0.47,10.5.19,15.72,0.64a31.64,31.64,0,0,0,12,0c22-.44,43.67-2.95,64.93-8.63,12.68-3.39,25-7.78,35.56-15.9C449,284.5,452.72,279.62,454.14,273.18Z" transform="translate(-86.83 -108.78)" fill="#7383bf"/><path d="M343.34,313a31.64,31.64,0,0,1-12,0h12Z" transform="translate(-86.83 -108.78)" fill="#6e7db4"/><path d="M454.11,391.06c0,17.12-.34,34.25.25,51.35,0.35,10.08-4,16.93-11.66,22.43-10.18,7.34-21.78,11.51-33.73,14.8a247.08,247.08,0,0,1-40.35,7.18,309,309,0,0,1-42.72,1.32c-24.72-.88-49.11-4-72.55-12.46-8.93-3.23-17.47-7.19-24.69-13.54-5.49-4.82-8.45-10.57-8.3-18.21,0.33-17.62.16-35.24,0.19-52.87,1.48,5.57,4.89,9.87,9.2,13.48a59.37,59.37,0,0,0,11.15,7.26c10.07,5.15,20.8,8.4,31.75,11.06,17.83,4.33,36,6.18,54.22,6.86a295.26,295.26,0,0,0,34.68-.83c9.69-.78,19.32-1.89,28.88-3.6,15.42-2.76,30.49-6.72,44.42-14.08C443.46,406.66,451.13,401,454.11,391.06Z" transform="translate(-86.83 -108.78)" fill="#434b61"/><path d="M454.11,391.06c-3,10-10.65,15.6-19.25,20.15-13.93,7.37-29,11.32-44.42,14.08-9.56,1.71-19.19,2.82-28.88,3.6a295.26,295.26,0,0,1-34.68.83c-18.26-.68-36.4-2.53-54.22-6.86-11-2.66-21.68-5.92-31.75-11.06a59.37,59.37,0,0,1-11.15-7.26c-4.32-3.61-7.72-7.9-9.2-13.48q0-20.45-.09-40.9c0-5.85.05-11.71,0.08-17.56,2.95,10.11,10.74,15.65,19.38,20.24,14.58,7.75,30.4,11.68,46.54,14.46A295,295,0,0,0,321.61,371q13.22,0.67,26.41.25a279.1,279.1,0,0,0,50.31-6c12.59-2.74,24.85-6.39,36.32-12.38a57.62,57.62,0,0,0,10.28-6.77,27.65,27.65,0,0,0,9.19-13.52Q454.12,361.84,454.11,391.06Z" transform="translate(-86.83 -108.78)" fill="#556180"/></svg>